<svg width="127" height="127" viewBox="0 0 127 127" fill="none" xmlns="http://www.w3.org/2000/svg">
<path d="M79.3752 28.5752C79.3752 32.7855 77.7027 36.8234 74.7255 39.8005C71.7484 42.7777 67.7105 44.4502 63.5002 44.4502C59.2899 44.4502 55.252 42.7777 52.2749 39.8005C49.2977 36.8234 47.6252 32.7855 47.6252 28.5752C47.6252 24.3649 49.2977 20.327 52.2749 17.3499C55.252 14.3727 59.2899 12.7002 63.5002 12.7002C67.7105 12.7002 71.7484 14.3727 74.7255 17.3499C77.7027 20.327 79.3752 24.3649 79.3752 28.5752ZM111.125 31.7502C111.125 35.1184 109.787 38.3487 107.405 40.7305C105.024 43.1122 101.793 44.4502 98.4252 44.4502C95.0569 44.4502 91.8267 43.1122 89.4449 40.7305C87.0632 38.3487 85.7252 35.1184 85.7252 31.7502C85.7252 28.3819 87.0632 25.1517 89.4449 22.7699C91.8267 20.3882 95.0569 19.0502 98.4252 19.0502C101.793 19.0502 105.024 20.3882 107.405 22.7699C109.787 25.1517 111.125 28.3819 111.125 31.7502ZM28.5752 44.4502C31.9434 44.4502 35.1737 43.1122 37.5555 40.7305C39.9372 38.3487 41.2752 35.1184 41.2752 31.7502C41.2752 28.3819 39.9372 25.1517 37.5555 22.7699C35.1737 20.3882 31.9434 19.0502 28.5752 19.0502C25.2069 19.0502 21.9767 20.3882 19.5949 22.7699C17.2132 25.1517 15.8752 28.3819 15.8752 31.7502C15.8752 35.1184 17.2132 38.3487 19.5949 40.7305C21.9767 43.1122 25.2069 44.4502 28.5752 44.4502ZM38.1002 58.7377C38.1002 54.3562 41.6562 50.8002 46.0377 50.8002H80.9627C85.3442 50.8002 88.9002 54.3562 88.9002 58.7377V88.9002C88.9002 95.6367 86.2241 102.097 81.4607 106.861C76.6973 111.624 70.2367 114.3 63.5002 114.3C56.7637 114.3 50.3031 111.624 45.5397 106.861C40.7763 102.097 38.1002 95.6367 38.1002 88.9002V58.7377ZM31.7502 58.7377C31.7502 55.7976 32.6392 53.0735 34.1568 50.8002H20.6377C16.2562 50.8002 12.7002 54.3562 12.7002 58.7377V82.5502C12.6999 85.2688 13.2815 87.9559 14.4058 90.431C15.5302 92.9062 17.1713 95.112 19.2188 96.9003C21.2664 98.6887 23.673 100.018 26.2769 100.799C28.8809 101.58 31.6218 101.795 34.3156 101.429C32.6195 97.4698 31.7467 93.2072 31.7502 88.9002V58.7377ZM95.2502 88.9002C95.2502 93.3452 94.3358 97.587 92.6848 101.429C93.523 101.543 94.3781 101.6 95.2502 101.6C100.303 101.6 105.148 99.5931 108.721 96.0206C112.293 92.448 114.3 87.6026 114.3 82.5502V58.7377C114.3 54.3562 110.744 50.8002 106.363 50.8002H92.8435C94.3675 53.0735 95.2502 55.7976 95.2502 58.7377V88.9002Z" fill="black"/>
</svg>
